<svg xmlns="http://www.w3.org/2000/svg" version="1.1" width="600px" height="600px" viewBox="0 0 200 200" style="overflow:hidden!important;"><defs id="SvgjsDefs22646"></defs><g id="svga-group-wrapper"><g id="svga-group-backs-single"><path id="SvgjsPath23120" d="M0 0h200v200H0V0z" fill="#45ada8" stroke-width="none" opacity="1"></path><path id="SvgjsPath23121" d="M165.5 23.7c11.7 0 21.1 9.5 21.1 21.1S177.2 66 165.5 66s-21.1-9.5-21.1-21.1 9.4-21.2 21.1-21.2zm-77.3 86.5c11.7 0 21.1 9.5 21.1 21.1s-9.5 21.1-21.1 21.1-21.1-9.5-21.1-21.1 9.4-21.1 21.1-21.1zm-37.8 48.9c9.1 0 16.6 7.4 16.6 16.6s-7.4 16.6-16.6 16.6-16.6-7.4-16.6-16.6 7.5-16.6 16.6-16.6zm-.3-132.8c9.1 0 16.6 7.4 16.6 16.6s-7.4 16.6-16.6 16.6S33.5 52 33.5 42.8s7.4-16.5 16.6-16.5zm60.3-7.2c2.7 0 4.8 2.2 4.8 4.8s-2.2 4.8-4.8 4.8-4.8-2.2-4.8-4.8 2.1-4.8 4.8-4.8zm-91.5 97.1c2.7 0 4.8 2.2 4.8 4.8s-2.2 4.8-4.8 4.8-4.8-2.2-4.8-4.8 2.1-4.8 4.8-4.8zm120-5.7c4.8 0 8.8 3.9 8.8 8.8s-3.9 8.8-8.8 8.8-8.8-3.9-8.8-8.8 4-8.8 8.8-8.8z" fill="#2f9e98" stroke-width="none" opacity="1"></path><path id="SvgjsPath23122" d="M101.8 45.4c14.2 0 25.8 11.5 25.8 25.8S116 97 101.8 97 76 85.4 76 71.2s11.5-25.8 25.8-25.8zm21.6 117.7c7.5 0 13.6 6.1 13.6 13.6s-6.1 13.6-13.6 13.6-13.6-6.1-13.6-13.6 6-13.6 13.6-13.6zm-88.6-35.9c7.2 0 13 5.8 13 12.9S42 153 34.8 153s-13-5.8-13-12.9 5.8-12.9 13-12.9zM55 88.8c2.1 0 3.8 1.7 3.8 3.8s-1.7 3.8-3.8 3.8-3.8-1.7-3.8-3.8 1.7-3.8 3.8-3.8zm44.9 78.4c2.1 0 3.8 1.7 3.8 3.8s-1.7 3.8-3.8 3.8-3.8-1.7-3.8-3.8 1.7-3.8 3.8-3.8zm79.9-82.1c2.1 0 3.8 1.7 3.8 3.8s-1.7 3.8-3.8 3.8-3.8-1.7-3.8-3.8 1.7-3.8 3.8-3.8zM66.7 16.5c2.1 0 3.8 1.7 3.8 3.8s-1.7 3.8-3.8 3.8-3.8-1.7-3.8-3.8 1.7-3.8 3.8-3.8zm-46.8-4.3c2.7 0 4.8 2.2 4.8 4.8s-2.2 4.8-4.8 4.8-4.8-2.2-4.8-4.8 2.1-4.8 4.8-4.8zM15.5 180c2.7 0 4.8 2.2 4.8 4.8s-2.2 4.8-4.8 4.8-4.8-2.2-4.8-4.8 2.2-4.8 4.8-4.8zM149.1 77.2c4.7 0 8.4 3.8 8.4 8.4s-3.8 8.4-8.4 8.4-8.4-3.8-8.4-8.4 3.7-8.4 8.4-8.4zM145.8 5c4.7 0 8.4 3.8 8.4 8.4s-3.8 8.4-8.4 8.4-8.4-3.8-8.4-8.4 3.7-8.4 8.4-8.4zM35.3 70.3c4.8 0 8.8 3.9 8.8 8.8s-3.9 8.8-8.8 8.8-8.8-3.9-8.8-8.8 4-8.8 8.8-8.8zm127.8 58.9c14 0 25.3 11.3 25.3 25.3s-11.3 25.3-25.3 25.3-25.3-11.3-25.3-25.3 11.4-25.3 25.3-25.3z" fill="#1c8e89" stroke-width="none" opacity="1"></path></g><g id="svga-group-humanwrap-move" transform="matrix(1,0,0,1,0,0)"><g id="svga-group-humanwrap" transform="matrix(1,0,0,1,0,0)"><g id="svga-group-hair-back-move" transform="matrix(1,0,0,1,0,0)"><g id="svga-group-hair-back" transform="matrix(1,0,0,1,0,0)"><path id="SvgjsPath23367" d="M58.6 164.6s47.6 7 84.6.2c0 0 3.1-70.8-1.9-80.7s-75.1-17.4-80.7 1-3.4 72-2 79.5z" fill="#cea57c" stroke-width="none" opacity="1" stroke="none"></path></g></g><g id="svga-group-humanbody-back"><path id="SvgjsPath22950" d="m168.5 219.5-1.7-21.5s.7-9-8.8-15.3-23.4-10.1-29.5-14.2c-6.1-4.1-9.2-4.5-9-16.9s.9-40.3.9-40.3H79.6s.7 27.9.9 40.3c.2 12.4-2.9 12.8-9 16.9-6.1 4.1-20 7.9-29.5 14.2S33.2 198 33.2 198l-1.6 21.5h136.9z" fill="#b2713b" stroke-width="none" opacity="1" stroke="none"></path></g><g id="svga-group-chinshadow-single"><path id="SvgjsPath23199" d="M100 161.2c7.93 0 14.73-1.36 19.73-3.84-.19-1.57-.27-3.46-.23-5.76.2-12.4.9-40.3.9-40.3H79.6s.7 27.9.9 40.3c.04 2.29-.04 4.18-.23 5.75 5.06 2.49 11.79 3.85 19.73 3.85z" fill="#934d13" stroke-width="none" opacity="0.65" stroke="none"></path></g><g id="svga-group-humanbody-front"><path id="SvgjsPath22951" d="M73.8 175.9c5.1 2.9 11.8 5.2 17.6 5.7.4 0 .4-.6.1-.7-2.8-1.1-5.9-1.7-8.8-2.6-2.9-.9-5.8-2-8.8-2.7-.1-.1-.3.2-.1.3zm35.2 6.2c5.3-.6 11.3-3 15.9-5.8.3-.2.1-.6-.2-.5-2.6.9-5.2 2-7.8 2.9-2.6.9-5.4 1.5-8 2.5-.5.1-.5.9.1.9z" fill="#934d13" stroke-width="none" opacity="1" stroke="none"></path><path id="SvgjsPath22952" d="m168.4 219.4-2.1-21.4c0-2.2-.5-4.5-1.5-6.6-.9-2.1-2.3-3.9-3.9-5.5s-3.5-2.8-5.5-4c-2-1.2-4.1-2.2-6.2-3.1-4.2-1.9-8.6-3.6-12.9-5.4-2.2-.9-4.3-1.9-6.4-3-1.1-.6-2.1-1.2-3-1.9-1-.6-2-1.2-3-1.9s-2-1.5-2.8-2.6c-.8-1-1.3-2.2-1.7-3.4-.7-2.4-.8-4.8-.8-7.2 0-4.7.2-9.4.3-14.1.2-9.4.6-18.7.9-28l.6.6-20.4-.2-20.4-.1.3-.3.7 28c.1 4.7.3 9.3.4 14 0 2.4-.1 4.7-.8 7.1-.3 1.2-.9 2.3-1.6 3.3-.8 1-1.7 1.8-2.7 2.5s-2 1.3-2.9 2c-.9.6-1.9 1.3-3 1.9-2.1 1.2-4.2 2.1-6.4 3.1-4.3 1.9-8.6 3.6-12.8 5.6-2.1 1-4.2 2.1-6.1 3.2-2 1.2-3.8 2.4-5.4 4-1.6 1.6-2.9 3.4-3.8 5.4-.4 1-.8 2.1-1 3.1-.2 1.1-.4 2.2-.3 3.2v.2l-1.5 21.5-1-1.1 34 .1c11.3 0 22.7.1 34.1.2l34.2.3 34.4.5zm.2.2-34 .4-34.2.3c-11.4.1-22.9.2-34.4.2l-34.4.1h-1.1l.1-1.1 1.7-21.5v.1c-.1-5.1 2.2-9.8 5.7-13.3 1.7-1.7 3.8-3.1 5.8-4.3 2-1.2 4.2-2.2 6.3-3.2 4.3-2 8.7-3.7 13-5.4 2.1-.9 4.3-1.8 6.3-2.9 1-.5 1.9-1.1 3-1.8 1-.6 2-1.2 2.9-1.9.9-.6 1.8-1.4 2.4-2.2.7-.9 1.2-1.9 1.5-2.9.6-2.1.8-4.5.8-6.8 0-4.6-.1-9.3-.2-14l-.6-28v-.3h.3l20.4-.1 20.4-.2h.6v.6c-.1 9.3-.2 18.7-.4 28-.1 4.7-.2 9.4-.2 14 .1 2.3.2 4.6.8 6.7.3 1.1.8 2 1.4 2.9.6.8 1.4 1.6 2.4 2.2.9.6 1.9 1.3 2.9 1.9 1 .7 1.9 1.3 2.9 1.8 2 1.1 4.1 2.1 6.3 3 4.3 1.8 8.6 3.6 12.9 5.6 2.1 1 4.2 2.1 6.2 3.3 2 1.2 4 2.6 5.7 4.3 3.4 3.4 5.6 8.1 5.4 13v-.1l1.4 21.6zm-112.8-.4 1.9-13.8.1 13.8h-2zm88.6 0-1.9-13.8-.1 13.8h2z" fill="#843e04" stroke-width="none" opacity="1" stroke="none"></path></g><g id="svga-group-clothes-single"><path id="SvgjsPath23347" d="m50.8 220 8.2-26.1 40.6 18.4 41.4-18.4 8.2 26.1z" fill="#386e77" stroke-width="none" opacity="1"></path><path id="SvgjsPath23348" d="m150.1 219.7-4.3-13-4.3-13 7.7-16.3-1.8-.8-6.5 16.9c-3.4 1.6-6.9 3.2-10.3 4.7-3.4 1.5-6.9 3.1-10.3 4.6-6.8 3-13.7 5.9-20.6 8.8l-9.8-4.7c-3.4-1.6-6.7-3.1-10.1-4.7-6.8-3.1-13.6-6.1-20.4-9.1h-.2l-5.9-17.3-1.9.7 7.1 16.8c-.1.1-.1.2-.1.3l-4 13.4-3.7 13 24.2.5 24.6.4 12.4.1h12.4l24.8-.1h.3c.6-.2.8-.7.7-1.2zm-37.4-.7-12.2.1-24.6.4-25 .5 4.5-13.1 4.1-11.9 19.5 9c3.4 1.5 6.8 3.1 10.2 4.5l10.2 4.4c.2.1.3.1.5 0 6.8-3.2 13.7-6.4 20.6-9.5 3.4-1.6 6.9-3 10.4-4.6 3.3-1.4 6.6-2.9 9.9-4.3l3.7 12.6 3.6 11.9-23.2-.1-12.2.1z" fill="#184f58" stroke-width="none" opacity="1"></path></g><g id="svga-group-head" transform="matrix(1,0,0,1,0,0)"><g id="svga-group-ears-left-move" transform="matrix(1,0,0,1,0,0)"><g id="svga-group-ears-left" transform="matrix(1,0,0,1,0,0)"><path id="SvgjsPath23151" d="M63.5 96.9s-3-5.1-4.6-7.4c-1.7-2.3-3.8-4.7-4.6-.7s-.8 11.6.3 16.9c1.1 5.2 5.8 10.5 7.8 10.5s3.4-7.9 3.3-10.6c-.1-2.7-1.1-6.7-2.2-8.7z" fill="#b2713b" stroke-width="none" opacity="1" stroke="none"></path><path id="SvgjsPath23152" d="M65.1 96.3c.3.7-.2 4.1 0 4.9.4 1.5.7 3.1.8 4.7 0 1.6-.1 3.1-.4 4.5-.2 1.4-.6 2.8-1 4.1-.2.6-.5 1.2-.9 1.7-.2.2-.4.5-.7.6-.1.1-.3.1-.5.1s-.3 0-.5-.1c-.6-.2-1.1-.5-1.6-.9-.3-.2-.5-.4-.7-.6l-.7-.7c-.9-1-1.8-2.2-2.5-3.5s-1.4-2.7-1.8-4.3l-.3-1.2c-.1-.4-.1-.8-.2-1.2-.1-.8-.2-1.6-.3-2.3-.2-1.5-.2-3.1-.3-4.6-.1-3-.1-6.1.3-9 .1-.7.3-1.5.8-2l.2-.2c.1 0 .1-.1.2-.1.1-.1.3-.1.4-.2.1 0 5.3.5 6 1.8.8 1.4 3.5 7.8 3.7 8.5zM58.8 90c-.8-1-1.7-2.1-2.5-2.5-.4-.2-.8-.2-1 .2-.3.3-.5.9-.6 1.5-.3 1.3-.5 2.7-.6 4.1s-.2 2.9-.2 4.4.1 3 .3 4.5c.1.8.2 1.5.4 2.3.1.4.2.7.2 1.1.1.4.2.7.3 1.1.5 1.4 1.1 2.7 1.9 3.9.7 1.2 1.6 2.2 2.4 3.1.8.9 1.8 1.6 2.6 1.8.7.2 1.3-.9 1.7-1.9.4-1.1.8-2.4 1-3.7.3-1.3.5-2.7.6-4.1 0-1.4-.2-3-.5-4.5s-.8-3-1.5-4.3c-1.3-2.5-2.9-4.9-4.5-7z" fill="#a35e26" stroke-width="none" opacity="1" stroke="none"></path><path id="SvgjsPath23153" d="M56.8 93.1c1.5 1.2 2.9 3.3 3.5 5.7 0 .2-.1.2-.2.1 0 0 0-.1-.1-.1-.4-.5-1-1.1-1.4-1-.8.1-.6 1.4-.3 2.5.4 1.5 1 2.8 1.7 4.1.1.1 0 .3-.1.2-1-1.4-2.5-4.4-2.3-6.4.2-1.7 1.4-1 2.2-.1-.6-1.3-1.2-2.4-2-3.4-1-1.2-3.2-3.1-3.5-.6 0 .1-.2.1-.2-.1-.1-2.3 1.7-1.7 2.7-.9z" fill="#934d13" stroke-width="none" opacity="1" stroke="none"></path><path id="SvgjsPath23154" d="M60.7 107.4c.9 2.4-.6 3.1-1.6 2.1-1.6-1.6-2.9-5.2-3.2-8.2 0-.2.1-.2.2 0 .3 1.7.6 3.2 1.3 4.7.4.9.9 1.9 1.4 2.5.3.5.7.8 1.1 1 .8-.1 1.1-.8.7-2.1-.1 0 0-.1.1 0z" fill="#934d13" stroke-width="none" opacity="1" stroke="none"></path></g></g><g id="svga-group-ears-right-move" transform="matrix(1,0,0,1,0,0)"><g id="svga-group-ears-right" transform="matrix(1,0,0,1,0,0)"><path id="SvgjsPath23155" d="M136.5 96.9s3-5.1 4.6-7.4c1.7-2.3 3.8-4.7 4.6-.7s.8 11.6-.3 16.9c-1.1 5.2-5.8 10.5-7.8 10.5s-3.4-7.9-3.3-10.6 1.1-6.7 2.2-8.7z" fill="#b2713b" stroke-width="none" opacity="1" stroke="none"></path><path id="SvgjsPath23156" d="M138.5 87.9c.7-1.3 5.9-1.8 6-1.8s.3.1.4.2c.1 0 .1.1.2.1l.2.2c.4.5.6 1.3.8 2 .5 2.9.4 6 .3 9-.1 1.5-.1 3.1-.3 4.6-.1.8-.2 1.5-.3 2.3-.1.4-.1.8-.2 1.2l-.3 1.2c-.4 1.6-1.1 3-1.8 4.3s-1.6 2.5-2.5 3.5c-.2.3-.5.5-.7.7s-.5.4-.7.6c-.5.4-1 .7-1.6.9-.2 0-.3.1-.5.1s-.3-.1-.5-.1c-.3-.1-.5-.4-.7-.6-.4-.5-.7-1.1-.9-1.7-.5-1.3-.8-2.6-1-4.1-.2-1.4-.4-2.9-.4-4.5.1-1.6.4-3.2.8-4.7.2-.8-.3-4.2 0-4.9.3-.8 3-7.2 3.7-8.5zm-1.9 9.1c-.7 1.3-1.1 2.8-1.5 4.3-.3 1.5-.5 3-.5 4.5.1 1.4.3 2.8.6 4.1.3 1.3.6 2.6 1 3.7s1 2.2 1.7 1.9c.8-.2 1.8-1 2.6-1.8.9-.9 1.7-1.9 2.4-3.1s1.4-2.4 1.9-3.9c.1-.4.2-.7.3-1.1s.2-.7.2-1.1c.1-.8.3-1.5.4-2.3.2-1.5.3-3 .3-4.5s0-3-.2-4.4c-.1-1.4-.3-2.8-.6-4.1-.1-.6-.3-1.2-.6-1.5s-.6-.4-1-.2c-.8.5-1.7 1.5-2.5 2.5-1.5 2.1-3.1 4.5-4.5 7z" fill="#a35e26" stroke-width="none" opacity="1" stroke="none"></path><path id="SvgjsPath23157" d="M143.2 93.1c-1.5 1.2-2.9 3.3-3.5 5.7 0 .2.1.2.2.1 0 0 0-.1.1-.1.4-.5 1-1.1 1.4-1 .8.1.6 1.4.3 2.5-.4 1.5-1 2.8-1.7 4.1-.1.1 0 .3.1.2 1-1.4 2.5-4.4 2.3-6.4-.2-1.7-1.4-1-2.2-.1.6-1.3 1.2-2.4 2-3.4 1-1.2 3.2-3.1 3.5-.6 0 .1.2.1.2-.1.1-2.3-1.7-1.7-2.7-.9z" fill="#934d13" stroke-width="none" opacity="1" stroke="none"></path><path id="SvgjsPath23158" d="M139.3 107.4c-.9 2.4.6 3.1 1.6 2.1 1.6-1.6 2.9-5.2 3.2-8.2 0-.2-.1-.2-.2 0-.3 1.7-.6 3.2-1.3 4.7-.4.9-.9 1.9-1.4 2.5-.3.5-.7.8-1.1 1-.8-.1-1.1-.8-.7-2.1.1 0 0-.1-.1 0z" fill="#934d13" stroke-width="none" opacity="1" stroke="none"></path></g></g><g id="svga-group-faceshape-wrap" transform="matrix(1,0,0,1,0,0)"><g id="svga-group-faceshape-single"><path id="SvgjsPath23189" d="M141 85.4c-1.2-28.5-19.71-43.67-41.01-43.67C78.59 41.73 60.2 56.9 59 85.4c0 0-.2 10.7 2.2 23.9s7.5 22.3 10.9 29.6 13.96 10.88 27.96 10.88 24.54-3.58 27.84-10.88c3.4-7.3 8.5-16.3 10.9-29.6 2.5-13.2 2.2-23.9 2.2-23.9z" fill="#b2713b" stroke-width="none" opacity="1" stroke="none"></path><path id="SvgjsPath23190" d="M72.1 138.9c3.4 7.3 13.9 11.5 27.9 11.5s24.6-4.2 27.9-11.5c3.3-7.3 8.5-16.3 10.9-29.6 2.4-13.2 2.2-23.9 2.2-23.9-1.2-28.5-19.7-44.1-41-44.1S60.2 57 59 85.4c0 0-.2 10.7 2.2 23.9 2.4 13.3 7.5 22.3 10.9 29.6zM60 91.64c-.1-1.61-.2-3.23-.2-4.84v-1.22l.1-1.21.1-1.21.1-1.21.1-1.21c0-.4.1-.81.2-1.21l.2-1.21c.1-.4.1-.81.2-1.21.6-3.13 1.4-6.26 2.6-9.18 1.2-2.93 2.7-5.75 4.5-8.38 1.8-2.62 3.9-4.95 6.3-6.96 2.4-2.02 5-3.73 7.8-5.05.3-.2.7-.3 1-.5.4-.2.7-.3 1.1-.5l1.1-.4c.2-.1.4-.1.5-.2l.5-.2 1.1-.4 1.1-.3c.7-.2 1.5-.4 2.2-.61 3-.71 6-1.01 9.1-1.01h2.2l1.1.1c.4 0 .8 0 1.1.1.8.1 1.5.2 2.3.3.4.1.8.1 1.1.2l1.1.2c.8.1 1.5.3 2.2.5.4.1.7.2 1.1.3s.7.2 1.1.3c.7.3 1.4.5 2.2.81.4.1.7.3 1.1.4l1 .5c2.8 1.31 5.4 2.93 7.8 4.84 2.4 1.92 4.6 4.14 6.6 6.66 1.9 2.52 3.6 5.25 4.9 8.17 2.6 5.85 3.9 12.31 4.2 18.77 0 3.23-.2 6.46-.5 9.69s-.8 6.46-1.4 9.59c-.2.81-.3 1.61-.5 2.42l-.5 2.32-.6 2.32-.7 2.32c-.9 3.03-2.1 6.06-3.3 8.98-1.3 2.93-2.7 5.75-4.2 8.68l-2.2 4.34-1.1 2.22s-.9 1.41-1 1.61c-1.6 2.12-4 3.84-6.6 5.05-2.7 1.21-5.6 2.02-8.6 2.52s-6.1.71-9.2.81c-3.1 0-6.2-.1-9.2-.61-3-.4-6-1.11-8.7-2.32-2.7-1.11-5.2-2.72-7-4.74-.4-.5-.8-1.11-1.1-1.61-.3-.5-.7-1.31-1-2.12l-2.2-4.34c-1.4-2.93-2.8-5.75-4-8.68-.6-1.51-1.2-2.93-1.7-4.44l-.4-1.11-.4-1.11c-.1-.4-.3-.71-.4-1.11l-.3-1.11c-.9-3.03-1.6-6.16-2.2-9.29-.6-3.13-1.1-6.36-1.4-9.59-.1-1.49-.3-3-.4-4.62z" fill="#843e04" stroke-width="none" opacity="1" stroke="none"></path></g></g><g id="svga-group-mouth-single-move" transform="matrix(1,0,0,1,0,0)"><g id="svga-group-mouth-single" transform="matrix(1,0,0,1,0,0)"><path id="SvgjsPath23135" d="M88 129s.3-1.3 2.7-3.1c2.4-1.8 7.3-2.9 11.5-2.6s8.2 3 9.8 5.3c0 0 .3.7-.5 2-.8 1.4-2.9 4.2-8.7 4.3s-9.1-.1-11.6-1.6c-2.6-1.5-3.3-4.1-3.2-4.3z" fill="#e66638" stroke-width="none" opacity="1" transform="translate(0 3)" stroke="none"></path><path id="SvgjsPath23136" d="M114 127.6c-4.4 1.8-8.6.3-13.1.1-2-.1-4 .1-6 .5-2.7.6-5.9 1.8-8-.7-.6-.7-1.8.5-1.1 1.1 1.5 1.2 3.2 1.4 5.1 1.2 2.9-.4 5.6-1.3 8.6-1.3 4.8 0 10.4 2.7 15 .2.7-.2.2-1.3-.5-1.1z" fill="#d74f1f" stroke-width="none" opacity="1" transform="translate(0 3)" stroke="none"></path><path id="SvgjsPath23137" d="M89.7 128.2c1.6-1.4 3.3-2.1 5.2-3 .2-.1 0-.3-.1-.3-2 .4-4.3 1.2-5.3 3.1-.1.2.1.3.2.2z" fill="#f57f54" stroke-width="none" opacity="1" transform="translate(0 3)" stroke="none"></path><path id="SvgjsPath23138" d="M110 130.9c-1.7.9-3.3 1.8-5.1 2.3-1.8.5-3.7.5-5.6.6-.2 0-.2.3 0 .3 3.6.7 8.2-.3 11-2.8.2-.2-.1-.5-.3-.4z" fill="#f57f54" stroke-width="none" opacity="1" transform="translate(0 3)" stroke="none"></path></g></g><g id="svga-group-eyes-left-move" transform="matrix(1,0,0,1,0,0)"><g id="svga-group-eyes-left" transform="matrix(1,0,0,1,0,0)"><g id="svga-group-eyesback-left"><path id="SvgjsPath23251" d="M90.4 97.9s-1.8 2.4-3.2 3.1c-1.4.7-4.4 2.4-8.5 1s-5.4-4.1-5.4-4.1 1.3-2 2.5-3.2 3.7-3.9 8.3-2.6c4.5 1.2 5.7 3.7 6.3 5.8z" fill="#ffffff" stroke-width="none" opacity="1"></path></g><g id="svga-group-eyesiriswrapper-left" transform="matrix(1,0,0,1,0,0)"><g id="svga-group-eyesiriscontrol-left" transform="matrix(1,0,0,1,0,0)"><g id="svga-group-eyesiris-left" transform="matrix(1,0,0,1,0,0)"><path id="SvgjsPath23203" d="M82 91.3c2.8 0 5.2 2.3 5.2 5.2s-2.3 5.2-5.2 5.2-5.2-2.3-5.2-5.2 2.3-5.2 5.2-5.2z" fill="#282978" stroke-width="none" opacity="1"></path><path id="SvgjsPath23204" d="M82 92.2c2.3 0 4.2 1.9 4.2 4.2s-1.9 4.2-4.2 4.2-4.2-1.9-4.2-4.2 1.9-4.2 4.2-4.2z" fill="#000000" stroke-width="none" opacity="1"></path><path id="SvgjsPath23205" d="M76.8 96.4c0 .9.2 1.7.6 2.4.8.5 1.6.7 2.6.7 2.7 0 4.9-2.2 4.9-4.9 0-1.2-.4-2.2-1.1-3-.6-.2-1.2-.3-1.8-.3-2.9 0-5.2 2.3-5.2 5.1z" fill="#3b3c87" stroke-width="none" opacity="1"></path><path id="SvgjsPath23206" d="M77.8 96.4c0 1.2.5 2.3 1.3 3 .3.1.6.1.9.1 2.7 0 4.9-2.2 4.9-4.9 0-.5-.1-1-.2-1.4-.7-.6-1.7-1-2.7-1-2.3 0-4.2 1.9-4.2 4.2z" fill="#1e1e1e" stroke-width="none" opacity="1"></path><path id="SvgjsPath23207" d="M79.7 94.2c.6-.6 1.4-.8 1.9-.4s.4 1.3-.2 1.9-1.4.8-1.9.4-.4-1.3.2-1.9z" fill="#2b2b2b" stroke-width="none" opacity="1"></path></g></g></g><g id="svga-group-eyesfront-left"><path id="SvgjsPath23259" d="M70.7 98c0 6.9 4.9 12.5 11 12.5s11-5.6 11-12.5-4.9-12.5-11-12.5-11 5.6-11 12.5zm2.5-.1s1.3-2 2.5-3.2 3.7-3.9 8.3-2.6c4.6 1.2 5.7 3.7 6.4 5.8 0 0-1.8 2.4-3.2 3.1-1.4.7-4.4 2.4-8.5 1s-5.5-4.1-5.5-4.1z" fill="#b2713b" stroke-width="none" opacity="1" stroke="none"></path><path id="SvgjsPath23260" d="M91.1 96.8C90 92.4 87 88.2 82 88.2c-4.9 0-7.1 4.4-8.9 8.2-.1.2-.4 0-.3-.1 1.7-4.2 4.5-8.7 9.6-8.5 4.9.2 8.2 4.4 9 8.9 0 .1-.2.2-.3.1z" fill="#a35e26" stroke-width="none" opacity="1" stroke="none"></path><path id="SvgjsPath23261" d="M70 97.8c1.5.7 2.7-.3 3.9-1.6-1.2.1-2.5-.4-3.3-1.1-.1-.1 0-.3.1-.2.6.3 1.2.5 1.9.7.6.1 1.1 0 1.7 0 .7-.9 1.4-1.9 2-2.6-1.3-.4-2.4-1.6-2.3-3 0-.1.2-.2.3 0 .3 1.3 1.1 2.3 2.3 2.8.1 0 .1-.1.2-.1.7-.5 1.4-.9 2.2-1.3-.5-1-.9-2-1-3.1 0-.2.3-.2.4 0 .3 1 .7 2 1 3 .9-.3 1.8-.5 2.8-.4.2-1.5-.3-2.9-1.2-4.1-.1-.2.1-.3.3-.2 1.3 1.1 1.7 2.8 1.3 4.3h.4c.8.1 1.5.3 2.2.6.7-1.2.8-2.3.8-3.7 0-.2.3-.2.3 0 .4 1.3 0 2.8-.8 3.9.8.4 1.5.8 2.2 1.4.9-.4 1.7-1.2 2.1-2.2 0-.1.2 0 .2.1-.2 1.1-1 2-1.9 2.4.5.5 1 1 1.4 1.6.5 0 .9 0 1.4-.1.7-.2 1.2-.6 1.7-1.1.1-.1.3 0 .2.2-.6.9-1.9 1.5-3.1 1.4.3.6.6 1.1.8 1.8.7.2 1.4.3 2.1.3.2 0 .2.2 0 .3-.7.2-1.4 0-2-.2.2.6.3 1.1.3 1.7 0 .3-.5.4-.6.1-1.4-6-7.9-8.9-13.2-5.4-2.1 1.4-4.4 7.3-7.6 4.5-.1-.4.2-.8.5-.7zm3.8 1.7c-.2-.3-.4-.7-.6-1.1-.1-.2.2-.3.3-.2 2.4 1.6 4.3 3.4 7.3 3.8 3.5.4 6.4-1 8.8-3.4.1-.1.2 0 .2.1-.8 1.2-1.9 2.1-3.2 2.8.3.1.5.3.6.5.2.2.3.6.2.8 0 .1-.2.2-.3 0l-.3-.6c-.1-.2-.3-.4-.4-.5l-.1-.1c-.8.4-1.6.8-2.5 1 .2.5.4 1.1.4 1.7 0 .2-.2.2-.3.1-.3-.5-.4-1.1-.6-1.6-.7.2-1.5.2-2.3.2h-.3c0 .8 0 1.6-.1 2.4 0 .2-.3.1-.3 0-.1-.8 0-1.6 0-2.3-.8-.1-1.6-.2-2.5-.5-.3.6-.5 1.2-.6 1.9 0 .1-.2.1-.2 0 0-.7.2-1.4.6-2-.8-.3-1.5-.6-2.2-1.1-.1.1-.2.2-.2.3l-.6.6c-.1.1-.2-.1-.2-.2.1-.2.3-.5.4-.7.1-.1.1-.2.2-.2-.4-.3-.8-.7-1.2-1.1-.8.1-1.5.4-2.2.7-.1.1-.3-.1-.2-.2.9-.7 1.6-1 2.4-1.1zm15 .6c.4.3.8.8.7 1.4 0 .1-.2.1-.2 0-.1-.2-.1-.4-.2-.6s-.2-.4-.4-.5c-.2-.2 0-.4.1-.3z" fill="#302040" stroke-width="none" opacity="1" stroke="none"></path></g></g></g><g id="svga-group-eyes-right-move" transform="matrix(1,0,0,1,0,0)"><g id="svga-group-eyes-right" transform="matrix(1,0,0,1,0,0)"><g id="svga-group-eyesback-right"><path id="SvgjsPath23252" d="M109.6 97.9s1.8 2.4 3.2 3.1c1.4.7 4.4 2.4 8.5 1s5.4-4.1 5.4-4.1-1.3-2-2.5-3.2-3.7-3.9-8.3-2.6c-4.5 1.2-5.7 3.7-6.3 5.8z" fill="#ffffff" stroke-width="none" opacity="1"></path></g><g id="svga-group-eyesiriswrapper-right" transform="matrix(1,0,0,1,0,0)"><g id="svga-group-eyesiriscontrol-right" transform="matrix(1,0,0,1,0,0)"><g id="svga-group-eyesiris-right" transform="matrix(1,0,0,1,0,0)"><path id="SvgjsPath23208" d="M118 91.3c2.8 0 5.2 2.3 5.2 5.2s-2.3 5.2-5.2 5.2-5.2-2.3-5.2-5.2 2.4-5.2 5.2-5.2z" fill="#282978" stroke-width="none" opacity="1"></path><path id="SvgjsPath23209" d="M118 92.2c2.3 0 4.2 1.9 4.2 4.2s-1.9 4.2-4.2 4.2-4.2-1.9-4.2-4.2 1.9-4.2 4.2-4.2z" fill="#000000" stroke-width="none" opacity="1"></path><path id="SvgjsPath23210" d="M112.9 96.4c0 .9.2 1.7.6 2.4.8.5 1.6.7 2.6.7 2.7 0 4.9-2.2 4.9-4.9 0-1.2-.4-2.2-1.1-3-.6-.2-1.2-.3-1.8-.3-2.9 0-5.2 2.3-5.2 5.1z" fill="#3b3c87" stroke-width="none" opacity="1"></path><path id="SvgjsPath23211" d="M113.8 96.4c0 1.2.5 2.3 1.3 3 .3.1.6.1.9.1 2.7 0 4.9-2.2 4.9-4.9 0-.5-.1-1-.2-1.4-.7-.6-1.7-1-2.7-1-2.3 0-4.2 1.9-4.2 4.2z" fill="#1e1e1e" stroke-width="none" opacity="1"></path><path id="SvgjsPath23212" d="M115.8 94.2c.6-.6 1.4-.8 1.9-.4s.4 1.3-.2 1.9-1.4.8-1.9.4-.4-1.3.2-1.9z" fill="#2b2b2b" stroke-width="none" opacity="1"></path></g></g></g><g id="svga-group-eyesfront-right"><path id="SvgjsPath23262" d="M118.3 85.5c-6.1 0-11 5.6-11 12.5s4.9 12.5 11 12.5 11-5.6 11-12.5-5-12.5-11-12.5zm3 16.5c-4.1 1.4-7-.3-8.5-1-1.4-.7-3.2-3.1-3.2-3.1.6-2.1 1.8-4.6 6.4-5.8 4.6-1.2 7.1 1.4 8.3 2.6 1.2 1.2 2.5 3.2 2.5 3.2s-1.4 2.7-5.5 4.1z" fill="#b2713b" stroke-width="none" opacity="1" stroke="none"></path><path id="SvgjsPath23265" d="M108.9 96.8c1.1-4.4 4.2-8.6 9.1-8.6s7.1 4.4 8.9 8.2c.1.2.4 0 .3-.1-1.7-4.2-4.5-8.7-9.6-8.5-4.9.2-8.2 4.4-9 8.9 0 .1.2.2.3.1z" fill="#a35e26" stroke-width="none" opacity="1" stroke="none"></path><path id="SvgjsPath23266" d="M130 97.8c-1.5.7-2.7-.3-3.9-1.6 1.2.1 2.5-.4 3.3-1.1.1-.1 0-.3-.1-.2-.6.3-1.2.5-1.9.7-.6.1-1.1 0-1.7 0-.7-.9-1.4-1.9-2-2.6 1.3-.4 2.4-1.6 2.3-3 0-.1-.2-.2-.3 0-.3 1.3-1.1 2.3-2.3 2.8-.1 0-.1-.1-.2-.1-.7-.5-1.4-.9-2.2-1.3.5-1 .9-2 1-3.1 0-.2-.3-.2-.4 0-.3 1-.7 2-1 3-.9-.3-1.8-.5-2.8-.4-.2-1.5.3-2.9 1.2-4.1.1-.2-.1-.3-.3-.2-1.3 1.1-1.7 2.8-1.3 4.3h-.4c-.8.1-1.5.3-2.2.6-.7-1.2-.8-2.3-.8-3.7 0-.2-.3-.2-.3 0-.4 1.3 0 2.8.8 3.9-.8.4-1.5.8-2.2 1.4-.9-.4-1.7-1.2-2.1-2.2 0-.1-.2 0-.2.1.2 1.1 1 2 1.9 2.4-.5.5-1 1-1.4 1.6-.5 0-.9 0-1.4-.1-.7-.2-1.2-.6-1.7-1.1-.1-.1-.3 0-.2.2.6.9 1.9 1.5 3.1 1.4-.3.6-.6 1.1-.8 1.8-.7.2-1.4.3-2.1.3-.2 0-.2.2 0 .3.7.2 1.4 0 2-.2-.2.6-.3 1.1-.3 1.7 0 .3.5.4.6.1 1.4-6 7.9-8.9 13.2-5.4 2.1 1.4 4.4 7.3 7.6 4.5.1-.4-.2-.8-.5-.7zm-3.8 1.7c.2-.3.4-.7.6-1.1.1-.2-.2-.3-.3-.2-2.4 1.6-4.3 3.4-7.3 3.8-3.5.4-6.4-1-8.8-3.4-.1-.1-.2 0-.2.1.8 1.2 1.9 2.1 3.2 2.8-.3.1-.5.3-.6.5-.2.2-.3.6-.2.8 0 .1.2.2.3 0l.3-.6c.1-.2.3-.4.4-.5l.1-.1c.8.4 1.6.8 2.5 1-.2.5-.4 1.1-.4 1.7 0 .2.2.2.3.1.3-.5.4-1.1.6-1.6.7.2 1.5.2 2.3.2h.3c0 .8 0 1.6.1 2.4 0 .2.3.1.3 0 .1-.8 0-1.6 0-2.3.8-.1 1.6-.2 2.5-.5.3.6.5 1.2.6 1.9 0 .1.2.1.2 0 0-.7-.2-1.4-.6-2 .8-.3 1.5-.6 2.2-1.1.1.1.2.2.2.3l.6.6c.1.1.2-.1.2-.2-.1-.2-.3-.5-.4-.7-.1-.1-.1-.2-.2-.2.4-.3.8-.7 1.2-1.1.8.1 1.5.4 2.2.7.1.1.3-.1.2-.2-.9-.7-1.6-1-2.4-1.1zm-15 .6c-.4.3-.8.8-.7 1.4 0 .1.2.1.2 0 .1-.2.1-.4.2-.6s.2-.4.4-.5c.2-.2 0-.4-.1-.3z" fill="#302040" stroke-width="none" opacity="1" stroke="none"></path></g></g></g><g id="svga-group-facehighlight-single"></g><g id="svga-group-eyebrows-left-move" transform="matrix(1,0,0,1,0,0)"><g id="svga-group-eyebrows-left-rotate" transform="matrix(1,0,0,1,0,0)"><g id="svga-group-eyebrows-left" transform="matrix(1,0,0,1,0,0)"><path id="SvgjsPath23323" d="M68.7 87.4c.1-.1.3-.2.5-.3 0-.1.1-.2.2-.3 1.5-1 3.6-2.1 5.6-2.1.2-.1.4-.1.6-.2 1.9-.9 4.7-.9 6.6-.9 1.5-.3 3.2-.4 4.7.1.7 0 1.4 0 2.1.1.1 0 .1 0 .1.1h.1c.1-.2.4-.3.6-.1 0 0 0 .1.1.1h.2c.4.1.6.5.7.9.1-.2.1-.4.2-.6.1-.1.2-.2.3 0 .4.6.2 1.3-.2 1.9v.1c-.1.4-.3.8-.7 1.2-.3.2-.7.4-1 .4-.2.1-.4.1-.6 0l-.1.1c-.7.1-1.6.1-2.4 0h-.2c-.9 0-1.8 0-2.8-.1 0 .1-.1.1-.2.1-1.6.2-3.2.1-4.8 0-.8-.1-1.7-.1-2.6-.2-1.4.4-3.3.2-4.8-.1-.5.1-1 .2-1.6.1-.1 0-.1 0-.2-.1h-.4c0 .2-.3 0 0-.2z" fill="#ddbc9b" stroke-width="none" opacity="1"></path><path id="SvgjsPath23324" d="M88.8 87.5c.8-.3 1.3-.6 1.7-1.2.3-.6.4-1.3.6-2 .1-.2.4-.1.4 0 .2 1.2-.5 3.8-2.5 3.6-.3-.1-.5-.3-.2-.4zm-2.9-4.3c1 .3 1.5 1.1 1.9 1.8.4.8.2 1.7-.3 2.4-.1.1-.4 0-.3-.1.3-.8.4-1.6-.1-2.4-.3-.6-.8-1.1-1.4-1.6 0 .1.1-.1.2-.1zm-6.3.7c2.5-.5 5.6 1.7 6.2 3.7 0 .1-.2.2-.3.1-.7-.9-1.4-1.8-2.4-2.4-1.1-.7-2.2-.8-3.5-1.1-.2-.1-.2-.3 0-.3zm-4.7.3c2.4-.2 5.5 1.6 6.6 3.4.1.1-.1.3-.2.2-.9-.8-1.8-1.6-3-2.2-1.1-.5-2.3-.7-3.4-1.1-.2-.1-.1-.3 0-.3zm-4.3 1.7c2.6-.2 5.6.7 7.8 1.7.2.1.1.3-.1.3-1.2-.4-2.5-.8-3.8-1.1-1.3-.3-2.7-.3-4-.6-.1 0-.1-.3.1-.3zm-1.8 1.3c.8-.3 1.8-.2 2.7-.2 1.1.1 2.2.2 3.3.4.2.1.1.3-.1.2-1.8-.4-4.1-.6-5.8-.3-.1.2-.3 0-.1-.1z" fill="#ecd5bd" stroke-width="none" opacity="1"></path><path id="SvgjsPath23325" d="M67.9 87.6c-.1.2.1.4.2.4 5.8.3 11.7.2 17.5.1 1.5 0 4.2.3 5.3-.8.9-.9.8-2.6.1-3.5 0-.1-.2 0-.2 0 .1.8.3 1.7 0 2.4-.3.8-1 1.1-1.9 1.3.9-.8 1.3-2.1 1.1-3.1 0-.1-.3-.1-.3 0 0 .6-.1 1.2-.4 1.8-.3.5-.7.9-1.1 1.3h-1.1c.7-1.2.4-2.9-.6-4 1.1.1 2.3.1 3.4.2.3 0 .3-.3.1-.4-4-1.2-9.1-.6-13.2.2-2.9.8-6.9 1.8-8.9 4.1zm13.7.1h-.8c.1 0 .1-.1.1-.2-1.1-1.4-2.8-2.7-4.8-3.1l1.8-.3c2.9-.5 5.7-.6 8.5-.4.8 1.3.9 2.6.4 4h-.6c0-1.5-1.1-3.3-2.9-3.8-.1 0-.2.1-.1.2.7.5 1.3 1 1.8 1.7.4.6.7 1.3.8 1.9h-4.2zm-12.8-.2c1.5-1.5 4.1-2.3 6.6-2.9 0 0 0 .1.1.1 2 .8 3.8 1.6 5.2 3-4 0-7.9 0-11.9-.2z" fill="#cea57c" stroke-width="none" opacity="1"></path></g></g></g><g id="svga-group-eyebrows-right-move" transform="matrix(1,0,0,1,0,0)"><g id="svga-group-eyebrows-right-rotate" transform="matrix(1,0,0,1,0,0)"><g id="svga-group-eyebrows-right" transform="matrix(1,0,0,1,0,0)"><path id="SvgjsPath23326" d="M131.4 87.4c-.1-.1-.3-.2-.5-.3 0-.1-.1-.2-.2-.3-1.5-1-3.6-2.1-5.6-2.1-.2-.1-.4-.1-.6-.2-1.9-.9-4.7-.9-6.6-.9-1.5-.3-3.2-.4-4.7.1-.7 0-1.4 0-2.1.1-.1 0-.1 0-.1.1h-.1c-.1-.2-.4-.3-.6-.1 0 0 0 .1-.1.1h-.2c-.4.1-.6.5-.7.9-.1-.2-.1-.4-.2-.6-.1-.1-.2-.2-.3 0-.4.6-.2 1.3.2 1.9v.1c.1.4.3.8.7 1.2.3.2.7.4 1 .4.2.1.4.1.6 0l.1.1c.7.2 1.6.2 2.5.1h.2c.9 0 1.8 0 2.8-.1 0 .1.1.1.2.1 1.6.2 3.2.1 4.8 0 .8-.1 1.7-.1 2.6-.2 1.4.4 3.3.2 4.8-.1.5.1 1 .2 1.6.1.1 0 .1 0 .2-.1h.2c.1.1.3-.1.1-.3z" fill="#ddbc9b" stroke-width="none" opacity="1"></path><path id="SvgjsPath23327" d="M111.2 87.5c-.8-.3-1.3-.6-1.7-1.2-.3-.6-.4-1.3-.6-2-.1-.2-.4-.1-.4 0-.2 1.2.5 3.8 2.5 3.6.3-.1.5-.3.2-.4zm2.9-4.3c-1 .3-1.5 1.1-1.9 1.8-.4.8-.2 1.7.3 2.4.1.1.4 0 .3-.1-.3-.8-.4-1.6.1-2.4.3-.6.8-1.1 1.4-1.6 0 .1-.1-.1-.2-.1zm6.3.7c-2.5-.5-5.6 1.7-6.2 3.7 0 .1.2.2.3.1.7-.9 1.4-1.8 2.4-2.4 1.1-.7 2.2-.8 3.5-1.1.2-.1.2-.3 0-.3zm4.7.3c-2.4-.2-5.5 1.6-6.6 3.4-.1.1.1.3.2.2.9-.8 1.8-1.6 3-2.2 1.1-.5 2.3-.7 3.4-1.1.2-.1.1-.3 0-.3zm4.3 1.7c-2.6-.2-5.6.7-7.8 1.7-.2.1-.1.3.1.3 1.2-.4 2.5-.8 3.8-1.1 1.3-.3 2.7-.3 4-.6.1 0 .1-.3-.1-.3zm1.8 1.3c-.8-.3-1.8-.2-2.7-.2-1.1.1-2.2.2-3.3.4-.2.1-.1.3.1.2 1.8-.4 4.1-.6 5.8-.3.1.2.3 0 .1-.1z" fill="#ecd5bd" stroke-width="none" opacity="1"></path><path id="SvgjsPath23328" d="M123 83.7c-4-.8-9.2-1.4-13.2-.2-.2.1-.2.4.1.4 1.2-.1 2.3-.2 3.4-.2-1 1.1-1.3 2.7-.6 4h-1.1c-.4-.4-.9-.8-1.1-1.3-.3-.6-.4-1.2-.4-1.8 0-.1-.2-.2-.3 0-.2 1 .1 2.3 1.1 3.1-.8-.2-1.5-.5-1.9-1.3-.3-.8-.1-1.6 0-2.4 0-.1-.1-.1-.2 0-.7.9-.8 2.7.1 3.5 1.1 1.1 3.8.7 5.3.8 5.8.1 11.7.2 17.5-.1.2 0 .4-.2.2-.4-1.8-2.5-5.8-3.5-8.9-4.1zm-8.8 4c.2-.7.4-1.3.8-1.9.5-.7 1.2-1.2 1.8-1.7.1-.1 0-.2-.1-.2-1.7.6-2.9 2.3-2.9 3.8h-.6c-.5-1.4-.4-2.7.4-4 2.8-.1 5.6-.1 8.5.4.6.1 1.1.2 1.8.3-2 .4-3.8 1.7-4.8 3.1-.1.1 0 .1.1.2h-5zm5.1 0c1.5-1.5 3.2-2.3 5.3-3.1 0 0 .1 0 .1-.1 2.4.5 5 1.4 6.5 2.9-4 .3-7.9.3-11.9.3z" fill="#cea57c" stroke-width="none" opacity="1"></path></g></g></g><g id="svga-group-nose-single-move" transform="matrix(1,0,0,1,0,0)"><g id="svga-group-nose-single" transform="matrix(1,0,0,1,0,0)"><path id="SvgjsPath23299" d="M95.88 109.44c.1.1.43.5.52.6.03.03.08.04.12.03-.11.33-.22.66-.36.99-.09.22.26.35.38.16 1.96-3.23 1.22-7.09.77-10.63-.55-4.42.04-8.25 1.14-12.53.02-.07-.09-.12-.12-.05-1.58 3.17-1.95 7.08-1.67 10.57.31 3.88 1.07 7.49-.05 11.21-.62-1.35-2.51-2.33-3.74-1.13-1.51 1.47-1.32 5.18-.76 6.99.07.24.48.21.45-.06-.17-1.46-.35-2.83-.13-4.31.06-.37.11-.76.22-1.12.26-.84.31-.87 1.23-1.22 1.04-.38 1.25-.23 2 .5z" fill="#843e04" stroke-width="none" opacity="1" transform="translate(0 2)" stroke="none"></path><path id="SvgjsPath23300" d="M97.44 117.02c.15.15.35.02.37-.15.27-2.15-3.58-3.25-4.61-1.4-.09.16.06.34.23.3.85-.18 1.57-.57 2.44-.19.68.29 1.07.94 1.57 1.44z" fill="#843e04" stroke-width="none" opacity="1" transform="translate(0 2)" stroke="none"></path><path id="SvgjsPath23301" d="M104.32 115.67c-.58.2-1.18.65-1.26 1.29-.03.22.28.31.42.17.36-.36.62-.71 1.16-.82.42-.09.86.15 1.25-.02.09-.04.13-.17.1-.26-.19-.63-1.2-.52-1.67-.36z" fill="#843e04" stroke-width="none" opacity="1" transform="translate(0 2)" stroke="none"></path><path id="SvgjsPath23302" d="M107.29 109.37c-.92-1.7-2.43-1.58-3.38.06-.06.11.08.22.17.13.8-.8 2-1.05 2.74.08.34.52.52 1.25.65 1.86.29 1.44-.01 2.7-.27 4.11-.05.25.3.43.43.18 1.02-1.91.66-4.57-.34-6.42z" fill="#843e04" stroke-width="none" opacity="1" transform="translate(0 2)" stroke="none"></path><path id="SvgjsPath23303" d="M102.52 107.67c-.08-3.33.07-6.58.58-9.88.01-.07-.08-.09-.1-.03-1.12 3.2-1.37 6.6-.62 9.92.02.09.14.07.14-.01z" fill="#843e04" stroke-width="none" opacity="1" transform="translate(0 2)" stroke="none"></path><path id="SvgjsPath23304" d="M102.86 117.55c-.33 1.62-.75 4.1-2.83 4.06-.78-.01-.94-.16-1.43-.72-.32-.37-.6-.79-.85-1.2-.5-.8-.92-1.66-1.23-2.56-.05-.14-.25-.08-.22.06.34 1.79 1.53 5.61 3.96 5.4 2.14-.18 3.63-3.15 3-5.04-.07-.18-.36-.21-.4 0z" fill="#843e04" stroke-width="none" opacity="1" transform="translate(0 2)" stroke="none"></path><path id="SvgjsPath23305" d="M106.46 110.51c-.72-.75-1.83-.94-2.54-.12-.17.19-.01.54.26.45.52-.16 1.25.2 1.5.65.36.65.08 1.39.34 2.04.11.29.53.5.77.2.72-.86.41-2.44-.33-3.22z" fill="#ba7b47" stroke-width="none" opacity="1" transform="translate(0 2)" stroke="none"></path><path id="SvgjsPath23306" d="M102.49 111.88c-.06-2.27-.67-4.55-1.1-6.77-.52-2.61.78-4.84.95-7.41.16-2.38-.29-4.75-.9-7.04-.11-.41-.68-.23-.62.17.38 2.64 1.01 5.33.58 8.01-.32 1.98-1.18 3.84-1.39 5.85-.22 2.14.19 4.37.12 6.53-.03 1.07.01 2.15-.04 3.22-.05 1.14-.33 2.29.06 3.38.15.43.79.74 1.14.3 1.24-1.53 1.25-4.33 1.2-6.24z" fill="#ba7b47" stroke-width="none" opacity="1" transform="translate(0 2)" stroke="none"></path></g></g><g id="svga-group-hair-front" transform="matrix(1,0,0,1,0,0)"><path id="SvgjsPath23364" d="M145.8 79.1c-6.6-37.7-19.9-40.4-23.5-41.7-3.3-1.2-11.7-2.2-22 3-3-4-17.7-4.4-21.3-3s-18.8 6.2-24.8 44.9c-4.5 29.3.6 83.5.6 83.5 9.3 4.5 21.5 5.3 21.5 5.3s-2.7-16.4-6.5-42.9.4-47.5 3.5-57.8C76.4 60 80 55.6 84.6 54.6c4.3-1 14.4 2.9 16 3.5v.1h.2v-.1c1.6-.6 11.7-4.5 16-3.5 4.6 1 7.2 6.3 10.3 16.7 3.1 10.3 8.3 30.4 4.4 56.9-3.9 26.5-6.5 42.9-6.5 42.9s12.2-.8 21.5-5.3c-.1 0 4.3-57.6-.7-86.7z" fill="#ddbc9b" stroke-width="none" opacity="1" stroke="none"></path><path id="SvgjsPath23365" d="M131.4 128.6c1-5.2 2.1-14 2.5-28.2.7-26.4-10.7-47.2-14.3-50.2s-19 7.5-19 7.5-11.5-6.6-16.2-7.5c-4.7-.9-8.2 2.1-11.6 12.3s-5.5 23-5.4 39.1c.1 11.2 1.7 22.5 2.6 28.2-.1-.6-.2-1.1-.2-1.7-3.9-26.5.4-47.5 3.5-57.8 3.1-10.4 6.7-14.8 11.3-15.8 4.3-1 14.4 2.9 16 3.5v.1h.2V58c1.6-.6 11.7-4.5 16-3.5 4.6 1 7.2 6.3 10.3 16.7 3.1 10.3 8.3 30.4 4.4 56.9-.1.3-.1.4-.1.5zM99.5 54s-9-6.2-14.3-7.4S73.9 50.3 72 58.4c0 0-.2-4.2 4.6-10.8 4.9-6.8 15.3.2 22.9 6.4zm1.4.9s.2-8.5 0-13.2c0 .1-.9 6.5 0 13.2zm3.7-3.2s6.5-5.1 12-5.8c5.5-.7 10.8 10.8 10.8 10.8s-6.2-9.7-9.9-9.5c-3.7.3-12.9 4.5-12.9 4.5zM133 73.6s4.9 21.7 2.5 46.2-6 47.8-6 47.8 5.8-22.6 7.6-45.3c1.9-22.6-4.1-48.7-4.1-48.7zm7.6-.7s3.2 30.5 2.8 50.6c-.5 20.1-1.9 39.5-1.9 39.5s2.8-23.8 3-43.9c.3-20-3.9-46.2-3.9-46.2zM64.9 92.6s-.5 49 7.4 74.6c0 0-5.8-13.6-7.6-39.3-1.9-25.6.2-35.3.2-35.3zm-.2 74.1s-5.5-23.6-6-45.5c0 0-3 22.9 6 45.5zm8-121.5S57.6 64.5 57.4 93.5c0 0-3.2-27.6 15.3-48.3z" fill="#cea57c" stroke-width="none" opacity="1" stroke="none"></path><path id="SvgjsPath23366" d="M101.8 54.8s9.9-7.7 15.7-7.5c5.8.2 12 12.9 15.9 29.5s1.3 65-4.9 89.8c0 0 5.4-39.1 5.7-52.8.3-13.7.5-30-4.7-47.4-5.2-17.3-10.6-17.6-12.7-17.9-2-.2-15 6.3-15 6.3zm-3.3.8s-8.5-9.3-17.1-8c-8.6 1.2-13.5 24-15.3 41.4-1.8 17.3 4.4 66 8.3 79.5 0 0-4.4-32.1-5.7-44-1.3-11.9-2.1-33.7.3-46.1s6.7-24.1 9.6-27.4c2.8-3.5 10-2.9 19.9 4.6zM61.4 77.3s-4.7 39.6 4.9 87c.1 0-7.2-52-4.9-87zM136 75s7.5 32.4.3 89.3c0 0 9.8-56.7-.3-89.3zm-25.1-30.8s4.7-2.7 7.8-2.1c6 1.3 7 5.7 7 5.7s-2.9-7-14.8-3.6z" fill="#ecd5bd" stroke-width="none" opacity="1" stroke="none"></path></g><g id="svga-group-glasses-single-move" transform="matrix(1,0,0,1,0,0)"><g id="svga-group-glasses-single" transform="matrix(1,0,0,1,0,0)"></g></g></g></g></g><rect id="svga-credit-rect" width="200" height="15" x="0" y="185" fill="#ecf0f1" opacity="0.5" style="display: none;"></rect><text id="svga-credit-text" font-family="Avenir Next, Roboto, Helvetica, Arial, sans-serif" font-size="10px" text-anchor="start" font-weight="400" size="10px" anchor="start" weight="400" fill="#333333" x="33.43669891357422" y="182.60824704170227" style="display: none;"><tspan id="SvgjsTspan22694" dy="13" x="33.43669891357422">Created on AvatarMaker.com</tspan></text></g></svg>